<?xml version="1.0" encoding="UTF-8"?>
<svg id="Layer_1" xmlns="http://www.w3.org/2000/svg" version="1.1" viewBox="0 0 73 65">
  <!-- Generator: Adobe Illustrator 29.5.0, SVG Export Plug-In . SVG Version: 2.1.0 Build 137)  -->
  <defs>
    <style>
      .st0 {
        fill: #ffee2b;
      }
    </style>
  </defs>
  <path class="st0" d="M0,0h73v65H0V0Z"/>
  <g>
    <path d="M17,14.1h-3.1v-1.8h-3.7v1.8l6.7,8v5.5l-1.2,1.2h-7.3l-1.2-1.2v-3.6h3.1v1.8h3.7v-1.8l-6.7-8v-5.5l1.2-1.2h7.3l1.2,1.2v3.7ZM26.2,9.2h3.1v18.4l-1.2,1.2h-7.4l-1.2-1.2V9.2h3.1v16.5h3.7s0-16.5,0-16.5ZM41.4,10.4v7.4l-1.2,1.2,1.2,1.2v7.4l-1.2,1.2h-8.6V9.2h8.6s1.2,1.2,1.2,1.2ZM38.4,12.3h-3.7v5.5h3.7v-5.5ZM34.7,25.7h3.7v-4.9h-3.7v4.9ZM52.5,9.2l1.2,1.2v17.1l-1.2,1.2h-8.6V9.2h8.6ZM50.6,25.7v-13.5h-3.7v13.5s3.7,0,3.7,0ZM59.1,25.7h5.4v3.1h-8.5V9.2h3.1v16.5h0Z"/>
    <g>
      <path d="M10.1,55.8H1.3v-20h8.8l1.7,1.8v7.3l-.9.9.9.9v7.4l-1.7,1.7ZM8.3,44.1v-4.7h-3.5v4.7h3.5ZM8.3,52.3v-4.7h-3.5v4.7h3.5Z"/>
      <path d="M25.5,55.8h-3.5l-3-8.2h-.5v8.2h-3.5v-20h8.8l1.7,1.8v8.2l-1.7,1.7h-1.3l3,8.2ZM22,44.1v-4.7h-3.5v4.7h3.5Z"/>
      <path d="M32.3,55.8h-3.5v-20h3.5v20Z"/>
      <path d="M44.2,55.8h-8.8v-20h8.8l1.7,1.8v16.5l-1.7,1.7ZM42.5,52.3v-13h-3.5v13h3.5Z"/>
      <path d="M57.9,55.8h-7l-1.7-1.7v-16.5l1.7-1.8h7l1.7,1.8v5.2h-3.5v-3.5h-3.5v13h3.5v-4.7h-1.7v-3.5h5.2v10l-1.7,1.7Z"/>
      <path d="M71.6,55.8h-8.8v-20h8.8v3.5h-5.2v4.7h5.2v3.5h-5.2v4.7h5.2v3.5Z"/>
    </g>
  </g>
</svg>